HIERARCHY
ROOT joint_Root
{
	OFFSET 0.0 0.0 0.0
	CHANNELS 6 Xposition Yposition Zposition Zrotation Xrotation Yrotation 
	JOINT Hips
	{
		OFFSET 4.5925 91.4895 -427.239
		CHANNELS 6 Xposition Yposition Zposition Zrotation Xrotation Yrotation 
		JOINT Spine
		{
			OFFSET 15.7357 0.0 0.0
			CHANNELS 6 Xposition Yposition Zposition Zrotation Xrotation Yrotation 
			JOINT Chest
			{
				OFFSET 8.98455 -0.406207 0.0
				CHANNELS 6 Xposition Yposition Zposition Zrotation Xrotation Yrotation 
				JOINT Neck
				{
					OFFSET 16.3773 0.0 0.0
					CHANNELS 6 Xposition Yposition Zposition Zrotation Xrotation Yrotation 
					JOINT Head
					{
						OFFSET 6.45672 0.0 0.0
						CHANNELS 6 Xposition Yposition Zposition Zrotation Xrotation Yrotation 
						End Site
						{
							OFFSET 0.0 0.0 0.0
						}
					}
				}
				JOINT Shoulder_L
				{
					OFFSET 12.9942 -0.242716 4.98039
					CHANNELS 6 Xposition Yposition Zposition Zrotation Xrotation Yrotation 
					JOINT UpperArm_L
					{
						OFFSET 5.34809 0.0 0.0
						CHANNELS 6 Xposition Yposition Zposition Zrotation Xrotation Yrotation 
						JOINT LowerArm_L
						{
							OFFSET 24.3286 1.87007e-05 0.0
							CHANNELS 6 Xposition Yposition Zposition Zrotation Xrotation Yrotation 
							JOINT Hand_L
							{
								OFFSET 22.2916 0.0 0.0
								CHANNELS 6 Xposition Yposition Zposition Zrotation Xrotation Yrotation 
								End Site
								{
									OFFSET 0.0 0.0 0.0
								}
							}
						}
					}
				}
				JOINT Shoulder_R
				{
					OFFSET 12.9945 -0.242716 -4.98039
					CHANNELS 6 Xposition Yposition Zposition Zrotation Xrotation Yrotation 
					JOINT UpperArm_R
					{
						OFFSET -5.34813 0.0 0.0
						CHANNELS 6 Xposition Yposition Zposition Zrotation Xrotation Yrotation 
						JOINT LowerArm_R
						{
							OFFSET -24.3289 0.000322201 0.0
							CHANNELS 6 Xposition Yposition Zposition Zrotation Xrotation Yrotation 
							JOINT Hand_R
							{
								OFFSET -22.2915 -0.000108084 0.0
								CHANNELS 6 Xposition Yposition Zposition Zrotation Xrotation Yrotation 
								End Site
								{
									OFFSET 0.0 0.0 0.0
								}
							}
						}
					}
				}
			}
		}
		JOINT UpperLeg_L
		{
			OFFSET -2.19248 -6.46944 0.0
			CHANNELS 6 Xposition Yposition Zposition Zrotation Xrotation Yrotation 
			JOINT LowerLeg_L
			{
				OFFSET 39.0811 0.0 -1.23785e-05
				CHANNELS 6 Xposition Yposition Zposition Zrotation Xrotation Yrotation 
				JOINT Foot_L
				{
					OFFSET 40.9854 0.0 -1.26872e-05
					CHANNELS 6 Xposition Yposition Zposition Zrotation Xrotation Yrotation 
					JOINT Toes_L
					{
						OFFSET 11.7543 0.0 0.0
						CHANNELS 6 Xposition Yposition Zposition Zrotation Xrotation Yrotation 
						End Site
						{
							OFFSET 0.0 0.0 0.0
						}
					}
				}
			}
		}
		JOINT UpperLeg_R
		{
			OFFSET -2.19251 6.46944 0.0
			CHANNELS 6 Xposition Yposition Zposition Zrotation Xrotation Yrotation 
			JOINT LowerLeg_R
			{
				OFFSET -39.0811 -0.00228153 -0.0401928
				CHANNELS 6 Xposition Yposition Zposition Zrotation Xrotation Yrotation 
				JOINT Foot_R
				{
					OFFSET -40.9854 0.0 0.0
					CHANNELS 6 Xposition Yposition Zposition Zrotation Xrotation Yrotation 
					JOINT Toes_R
					{
						OFFSET -11.7543 0.0 0.0
						CHANNELS 6 Xposition Yposition Zposition Zrotation Xrotation Yrotation 
						End Site
						{
							OFFSET 0.0 0.0 0.0
						}
					}
				}
			}
		}
	}
}
MOTION
Frames:	4
Frame Time:	0.0333333
0.000000 0.000000 0.000000 0.000000 0.000000 -0.000000 -2.252710 95.057600 82.281400 -92.371300 -10.512100 167.775000 15.735700 0.000005 -0.000001 33.995100 80.534500 -32.724600 8.984550 -0.406207 -0.000000 3.098640 -15.731800 2.978900 16.377300 -0.000001 -0.000001 1.692540 -3.145910 0.202240 6.456720 -0.000001 -0.000000 -5.019610 3.779870 3.537260 12.994200 -0.242716 4.980390 -87.068100 -9.822550 -73.289200 5.348090 -0.000007 -0.000001 -65.595500 23.873500 -26.234600 24.328600 0.000019 0.000005 7.472720 -3.063860 -112.170000 22.291600 -0.000001 0.000005 -2.517850 5.376010 -2.174020 12.994500 -0.242716 -4.980390 92.015200 -5.383220 -69.440800 -5.348130 -0.000001 -0.000004 -74.046900 25.467700 40.696900 -24.328900 0.000322 -0.000009 -6.584250 -3.819740 -60.003500 -22.291500 -0.000108 -0.000004 4.122720 5.546320 -8.531960 -2.192480 -6.469440 -0.000000 -169.396000 -7.625920 13.047100 39.081100 -0.000007 -0.000012 0.172796 -0.208005 39.717200 40.985400 -0.000006 -0.000013 -3.381130 -0.517107 -28.669200 11.754300 -0.000000 0.000003 -0.002632 -0.036368 -18.055700 -2.192510 6.469440 -0.000001 -175.602000 14.515700 138.071000 -39.081100 -0.002282 -0.040193 -0.091467 0.239462 21.594900 -40.985400 0.000008 0.000006 -3.805240 16.620500 -67.662700 -11.754300 -0.000006 -0.000006 -0.016235 -0.145458 -22.509800
0.000000 0.000000 0.000000 0.000000 0.000000 -0.000000 -2.309020 93.621500 70.247500 -93.490400 -9.481890 169.558000 15.735700 0.000005 -0.000001 38.750700 80.573400 -37.861400 8.984550 -0.406207 -0.000000 4.266120 -14.707900 2.334990 16.377300 -0.000001 -0.000001 2.717650 -3.581710 0.096784 6.456720 -0.000001 -0.000000 -5.603390 3.230790 3.444910 12.994200 -0.242716 4.980390 -87.311700 -9.033320 -73.350300 5.348090 -0.000007 -0.000001 -67.417100 27.009900 -21.179200 24.328600 0.000019 0.000005 8.350410 -2.543290 -106.823000 22.291600 -0.000001 0.000005 0.057911 5.381710 -2.352350 12.994500 -0.242716 -4.980390 91.368500 -3.635930 -69.358200 -5.348130 -0.000001 -0.000004 -73.197300 22.001200 37.882500 -24.328900 0.000322 -0.000009 -7.738570 -4.473940 -60.138400 -22.291500 -0.000108 -0.000004 5.490340 5.550980 -8.751890 -2.192480 -6.469440 -0.000000 -171.868000 -4.133320 14.538700 39.081100 -0.000007 -0.000012 0.257167 -0.206041 51.298200 40.985400 -0.000006 -0.000013 -0.810397 -4.362070 -27.601700 11.754300 -0.000000 0.000003 -0.002286 -0.032242 -17.887900 -2.192510 6.469440 -0.000001 -169.256000 25.588000 138.230000 -39.081100 -0.002282 -0.040193 -0.148266 0.468845 17.917700 -40.985400 0.000008 0.000006 -8.914560 23.737800 -70.446800 -11.754300 -0.000006 -0.000006 -0.019686 -0.165541 -23.335900
0.000000 0.000000 0.000000 0.000000 0.000000 -0.000000 -2.239310 91.044500 58.385200 -93.415000 -7.480650 172.045000 15.735700 0.000005 -0.000001 47.138500 80.610500 -46.308500 8.984550 -0.406207 -0.000000 6.211660 -12.750200 2.358110 16.377300 -0.000001 -0.000001 3.091340 -3.438090 -0.011042 6.456720 -0.000001 -0.000000 -6.274350 2.342020 3.323650 12.994200 -0.242716 4.980390 -87.650200 -7.633340 -72.832400 5.348090 -0.000007 -0.000001 -68.248400 29.611600 -16.588100 24.328600 0.000019 0.000005 9.927110 -1.623080 -99.195500 22.291600 -0.000001 0.000005 0.515388 5.401300 -2.979520 12.994500 -0.242716 -4.980390 90.321900 -0.890938 -70.152000 -5.348130 -0.000001 -0.000004 -71.887000 19.368800 33.311300 -24.328900 0.000322 -0.000009 -9.543600 -5.328670 -61.080000 -22.291500 -0.000108 -0.000004 7.234550 5.558920 -9.130880 -2.192480 -6.469440 -0.000000 -173.604000 -2.484850 13.726500 39.081100 -0.000007 -0.000012 0.361539 -0.153610 66.979900 40.985400 -0.000006 -0.000013 -2.611460 -4.083020 -24.023800 11.754300 -0.000000 0.000003 -0.001691 -0.024782 -17.584500 -2.192510 6.469440 -0.000001 -169.600000 26.119800 140.591000 -39.081100 -0.002282 -0.040193 -0.150981 0.355326 23.472500 -40.985400 0.000008 0.000006 -7.503840 16.610800 -74.828600 -11.754300 -0.000006 -0.000006 -0.020474 -0.169901 -23.515500
0.000000 0.000000 0.000000 0.000000 0.000000 -0.000000 -1.936180 87.814100 47.821100 -91.289200 -5.446970 172.406000 15.735700 0.000005 -0.000001 55.234900 80.752900 -53.626100 8.984550 -0.406207 -0.000000 7.674960 -10.506100 3.927870 16.377300 -0.000001 -0.000001 2.189470 -2.682020 -0.339325 6.456720 -0.000001 -0.000000 -7.845090 1.490270 3.326950 12.994200 -0.242716 4.980390 -88.488200 -4.740280 -72.286600 5.348090 -0.000007 -0.000001 -66.935800 31.133400 -12.506800 24.328600 0.000019 0.000005 10.598100 0.173252 -89.071200 22.291600 -0.000001 0.000005 0.837373 5.417840 -3.524140 12.994500 -0.242716 -4.980390 88.910600 3.416440 -72.287500 -5.348130 -0.000001 -0.000004 -68.763600 17.685800 25.948000 -24.328900 0.000322 -0.000009 -10.286300 -5.224990 -63.349700 -22.291500 -0.000108 -0.000004 9.217360 5.573380 -9.856130 -2.192480 -6.469440 -0.000000 -173.143000 -2.572150 5.396390 39.081100 -0.000007 -0.000012 0.512370 -0.022217 87.516200 40.985400 -0.000006 -0.000013 -5.219940 -2.568540 -16.107000 11.754300 -0.000000 0.000003 -0.001939 -0.027954 -17.713400 -2.192510 6.469440 -0.000001 -167.895000 19.962300 137.686000 -39.081100 -0.002282 -0.040193 0.569603 -0.736952 37.542500 -40.985400 0.000008 0.000006 10.443600 6.644080 -72.245900 -11.754300 -0.000006 -0.000006 -0.032738 -0.229750 -25.992300
